{
    "asset" : {
        "generator" : "Khronos glTF Blender I/O v0.9.10",
        "version" : "2.0"
    },
    "scene" : 0,
    "scenes" : [
        {
            "name" : "Scene",
            "nodes" : [
                0,
                1,
                2
            ]
        }
    ],
    "nodes" : [
        {
            "mesh" : 0,
            "name" : "Cube",
            "translation" : [
                1,
                1,
                -1
            ]
        },
        {
            "name" : "Lamp",
            "rotation" : [
                0.30295586585998535,
                0.22569365799427032,
                -0.10431505739688873,
                0.9199991822242737
            ],
            "translation" : [
                4.076245307922363,
                5.903861999511719,
                -1.0054539442062378
            ]
        },
        {
            "name" : "Camera",
            "rotation" : [
                0.483536034822464,
                0.3368716239929199,
                -0.20870371162891388,
                0.7804826498031616
            ],
            "translation" : [
                6.218890190124512,
                5.609332084655762,
                6.256405353546143
            ]
        }
    ],
    "materials" : [
        {
            "doubleSided" : true,
            "name" : "MainCubeMaterial.001",
            "pbrMetallicRoughness" : {
                "baseColorTexture" : {
                    "index" : 0,
                    "texCoord" : 0
                },
                "metallicFactor" : 0,
                "roughnessFactor" : 0.690034806728363
            }
        },
        {
            "doubleSided" : true,
            "name" : "FrontFaceMaterial.001",
            "pbrMetallicRoughness" : {
                "baseColorTexture" : {
                    "index" : 1,
                    "texCoord" : 0
                },
                "metallicFactor" : 0,
                "roughnessFactor" : 0.690034806728363
            }
        },
        {
            "doubleSided" : true,
            "name" : "CylinderMaterial.001",
            "pbrMetallicRoughness" : {
                "baseColorFactor" : [
                    0.010336578823626041,
                    0.8000000715255737,
                    0,
                    1
                ],
                "metallicFactor" : 0,
                "roughnessFactor" : 0.690034806728363
            }
        },
        {
            "doubleSided" : true,
            "name" : "CylinderTopMaterial.001",
            "pbrMetallicRoughness" : {
                "baseColorFactor" : [
                    0.7319225072860718,
                    0.15539617836475372,
                    0.8000000715255737,
                    1
                ],
                "metallicFactor" : 0,
                "roughnessFactor" : 0.690034806728363
            }
        }
    ],
    "meshes" : [
        {
            "name" : "Cube.002",
            "primitives" : [
                {
                    "attributes" : {
                        "POSITION" : 0,
                        "NORMAL" : 1,
                        "TEXCOORD_0" : 2
                    },
                    "indices" : 3,
                    "material" : 0
                },
                {
                    "attributes" : {
                        "POSITION" : 4,
                        "NORMAL" : 5,
                        "TEXCOORD_0" : 6
                    },
                    "indices" : 7,
                    "material" : 1
                },
                {
                    "attributes" : {
                        "POSITION" : 8,
                        "NORMAL" : 9,
                        "TEXCOORD_0" : 10
                    },
                    "indices" : 11,
                    "material" : 2
                },
                {
                    "attributes" : {
                        "POSITION" : 12,
                        "NORMAL" : 13,
                        "TEXCOORD_0" : 14
                    },
                    "indices" : 15,
                    "material" : 3
                }
            ]
        }
    ],
    "textures" : [
        {
            "source" : 0
        },
        {
            "source" : 0
        }
    ],
    "images" : [
        {
            "bufferView" : 4,
            "mimeType" : "image/png",
            "name" : "uvchecker"
        }
    ],
    "accessors" : [
        {
            "bufferView" : 0,
            "componentType" : 5126,
            "count" : 20,
            "max" : [
                1.0000003576278687,
                1,
                1.0000004768371582
            ],
            "min" : [
                -1.0000005960464478,
                -1,
                -1.0000003576278687
            ],
            "type" : "VEC3"
        },
        {
            "bufferView" : 1,
            "componentType" : 5126,
            "count" : 20,
            "type" : "VEC3"
        },
        {
            "bufferView" : 2,
            "componentType" : 5126,
            "count" : 20,
            "type" : "VEC2"
        },
        {
            "bufferView" : 3,
            "componentType" : 5123,
            "count" : 30,
            "type" : "SCALAR"
        },
        {
            "bufferView" : 5,
            "componentType" : 5126,
            "count" : 4,
            "max" : [
                0.9999998807907104,
                1,
                1.0000004768371582
            ],
            "min" : [
                -1.0000005960464478,
                -1,
                0.9999992847442627
            ],
            "type" : "VEC3"
        },
        {
            "bufferView" : 6,
            "componentType" : 5126,
            "count" : 4,
            "type" : "VEC3"
        },
        {
            "bufferView" : 7,
            "componentType" : 5126,
            "count" : 4,
            "type" : "VEC2"
        },
        {
            "bufferView" : 8,
            "componentType" : 5123,
            "count" : 6,
            "type" : "SCALAR"
        },
        {
            "bufferView" : 9,
            "componentType" : 5126,
            "count" : 160,
            "max" : [
                -1.29624605178833,
                0.8456647396087646,
                0.15941132605075836
            ],
            "min" : [
                -3.29624605178833,
                -1.1543352603912354,
                -1.8405886888504028
            ],
            "type" : "VEC3"
        },
        {
            "bufferView" : 10,
            "componentType" : 5126,
            "count" : 160,
            "type" : "VEC3"
        },
        {
            "bufferView" : 11,
            "componentType" : 5126,
            "count" : 160,
            "type" : "VEC2"
        },
        {
            "bufferView" : 12,
            "componentType" : 5123,
            "count" : 282,
            "type" : "SCALAR"
        },
        {
            "bufferView" : 13,
            "componentType" : 5126,
            "count" : 608,
            "max" : [
                -1.29624605178833,
                1.7164585590362549,
                0.15941132605075836
            ],
            "min" : [
                -3.29624605178833,
                0.8456647396087646,
                -1.8405886888504028
            ],
            "type" : "VEC3"
        },
        {
            "bufferView" : 14,
            "componentType" : 5126,
            "count" : 608,
            "type" : "VEC3"
        },
        {
            "bufferView" : 15,
            "componentType" : 5126,
            "count" : 608,
            "type" : "VEC2"
        },
        {
            "bufferView" : 16,
            "componentType" : 5123,
            "count" : 3546,
            "type" : "SCALAR"
        }
    ],
    "bufferViews" : [
        {
            "buffer" : 0,
            "byteLength" : 240,
            "byteOffset" : 0
        },
        {
            "buffer" : 0,
            "byteLength" : 240,
            "byteOffset" : 240
        },
        {
            "buffer" : 0,
            "byteLength" : 160,
            "byteOffset" : 480
        },
        {
            "buffer" : 0,
            "byteLength" : 60,
            "byteOffset" : 640
        },
        {
            "buffer" : 0,
            "byteLength" : 3440,
            "byteOffset" : 700
        },
        {
            "buffer" : 0,
            "byteLength" : 48,
            "byteOffset" : 4140
        },
        {
            "buffer" : 0,
            "byteLength" : 48,
            "byteOffset" : 4188
        },
        {
            "buffer" : 0,
            "byteLength" : 32,
            "byteOffset" : 4236
        },
        {
            "buffer" : 0,
            "byteLength" : 12,
            "byteOffset" : 4268
        },
        {
            "buffer" : 0,
            "byteLength" : 1920,
            "byteOffset" : 4280
        },
        {
            "buffer" : 0,
            "byteLength" : 1920,
            "byteOffset" : 6200
        },
        {
            "buffer" : 0,
            "byteLength" : 1280,
            "byteOffset" : 8120
        },
        {
            "buffer" : 0,
            "byteLength" : 564,
            "byteOffset" : 9400
        },
        {
            "buffer" : 0,
            "byteLength" : 7296,
            "byteOffset" : 9964
        },
        {
            "buffer" : 0,
            "byteLength" : 7296,
            "byteOffset" : 17260
        },
        {
            "buffer" : 0,
            "byteLength" : 4864,
            "byteOffset" : 24556
        },
        {
            "buffer" : 0,
            "byteLength" : 7092,
            "byteOffset" : 29420
        }
    ],
    "buffers" : [
        {
            "byteLength" : 36512,
            "uri" : "data:application/octet-stream;base64,"
        }
    ]
}
