{
    "asset" : {
        "generator" : "Khronos glTF Blender I/O v1.7.33",
        "version" : "2.0"
    },
    "scene" : 0,
    "scenes" : [
        {
            "name" : "Scene",
            "nodes" : [
                0
            ]
        }
    ],
    "nodes" : [
        {
            "mesh" : 0,
            "name" : "Building",
            "translation" : [
                -165.234130859375,
                -99.90001678466797,
                -443.4761962890625
            ]
        }
    ],
    "materials" : [
        {
            "doubleSided" : true,
            "name" : "FloorMaterial",
            "pbrMetallicRoughness" : {
                "baseColorFactor" : [
                    0,
                    0.43854376673698425,
                    0.007815415970981121,
                    1
                ],
                "metallicFactor" : 0,
                "roughnessFactor" : 0.4000000059604645
            }
        },
        {
            "doubleSided" : true,
            "name" : "InternalWallMaterial",
            "pbrMetallicRoughness" : {
                "baseColorFactor" : [
                    1,
                    0.9809550046920776,
                    0.8408135175704956,
                    1
                ],
                "metallicFactor" : 0,
                "roughnessFactor" : 0.5
            }
        },
        {
            "doubleSided" : true,
            "name" : "CeilingMaterial",
            "pbrMetallicRoughness" : {
                "baseColorFactor" : [
                    0.8000000715255737,
                    0.36964356899261475,
                    0.28693994879722595,
                    1
                ],
                "metallicFactor" : 0,
                "roughnessFactor" : 0.5
            }
        },
        {
            "doubleSided" : true,
            "name" : "WarningMaterial",
            "pbrMetallicRoughness" : {
                "baseColorFactor" : [
                    0.8000000715255737,
                    0.5811904072761536,
                    0,
                    1
                ],
                "metallicFactor" : 0,
                "roughnessFactor" : 0.5
            }
        }
    ],
    "meshes" : [
        {
            "name" : "Building",
            "primitives" : [
                {
                    "attributes" : {
                        "POSITION" : 0,
                        "NORMAL" : 1,
                        "TEXCOORD_0" : 2
                    },
                    "indices" : 3,
                    "material" : 0
                },
                {
                    "attributes" : {
                        "POSITION" : 4,
                        "NORMAL" : 5,
                        "TEXCOORD_0" : 6
                    },
                    "indices" : 7,
                    "material" : 1
                },
                {
                    "attributes" : {
                        "POSITION" : 8,
                        "NORMAL" : 9,
                        "TEXCOORD_0" : 10
                    },
                    "indices" : 11,
                    "material" : 2
                },
                {
                    "attributes" : {
                        "POSITION" : 12,
                        "NORMAL" : 13,
                        "TEXCOORD_0" : 14
                    },
                    "indices" : 15,
                    "material" : 3
                }
            ]
        }
    ],
    "accessors" : [
        {
            "bufferView" : 0,
            "componentType" : 5126,
            "count" : 262,
            "max" : [
                1282.530517578125,
                499.8999938964844,
                983.564453125
            ],
            "min" : [
                -717.4697875976562,
                -300.1000671386719,
                -816.4356689453125
            ],
            "type" : "VEC3"
        },
        {
            "bufferView" : 1,
            "componentType" : 5126,
            "count" : 262,
            "type" : "VEC3"
        },
        {
            "bufferView" : 2,
            "componentType" : 5126,
            "count" : 262,
            "type" : "VEC2"
        },
        {
            "bufferView" : 3,
            "componentType" : 5123,
            "count" : 495,
            "type" : "SCALAR"
        },
        {
            "bufferView" : 4,
            "componentType" : 5126,
            "count" : 226,
            "max" : [
                1232.5306396484375,
                499.8999938964844,
                943.564453125
            ],
            "min" : [
                -667.4697265625,
                -300.1000671386719,
                -576.4356689453125
            ],
            "type" : "VEC3"
        },
        {
            "bufferView" : 5,
            "componentType" : 5126,
            "count" : 226,
            "type" : "VEC3"
        },
        {
            "bufferView" : 6,
            "componentType" : 5126,
            "count" : 226,
            "type" : "VEC2"
        },
        {
            "bufferView" : 7,
            "componentType" : 5123,
            "count" : 540,
            "type" : "SCALAR"
        },
        {
            "bufferView" : 8,
            "componentType" : 5126,
            "count" : 4,
            "max" : [
                1282.530517578125,
                499.8999938964844,
                943.564453125
            ],
            "min" : [
                -667.4697265625,
                499.8999938964844,
                -599.4388427734375
            ],
            "type" : "VEC3"
        },
        {
            "bufferView" : 9,
            "componentType" : 5126,
            "count" : 4,
            "type" : "VEC3"
        },
        {
            "bufferView" : 10,
            "componentType" : 5126,
            "count" : 4,
            "type" : "VEC2"
        },
        {
            "bufferView" : 11,
            "componentType" : 5123,
            "count" : 6,
            "type" : "SCALAR"
        },
        {
            "bufferView" : 12,
            "componentType" : 5126,
            "count" : 152,
            "max" : [
                667.2285766601562,
                19.900012969970703,
                922.803466796875
            ],
            "min" : [
                -667.2285766601562,
                -0.10000000149011612,
                -10
            ],
            "type" : "VEC3"
        },
        {
            "bufferView" : 13,
            "componentType" : 5126,
            "count" : 152,
            "type" : "VEC3"
        },
        {
            "bufferView" : 14,
            "componentType" : 5126,
            "count" : 152,
            "type" : "VEC2"
        },
        {
            "bufferView" : 15,
            "componentType" : 5123,
            "count" : 228,
            "type" : "SCALAR"
        }
    ],
    "bufferViews" : [
        {
            "buffer" : 0,
            "byteLength" : 3144,
            "byteOffset" : 0
        },
        {
            "buffer" : 0,
            "byteLength" : 3144,
            "byteOffset" : 3144
        },
        {
            "buffer" : 0,
            "byteLength" : 2096,
            "byteOffset" : 6288
        },
        {
            "buffer" : 0,
            "byteLength" : 990,
            "byteOffset" : 8384
        },
        {
            "buffer" : 0,
            "byteLength" : 2712,
            "byteOffset" : 9376
        },
        {
            "buffer" : 0,
            "byteLength" : 2712,
            "byteOffset" : 12088
        },
        {
            "buffer" : 0,
            "byteLength" : 1808,
            "byteOffset" : 14800
        },
        {
            "buffer" : 0,
            "byteLength" : 1080,
            "byteOffset" : 16608
        },
        {
            "buffer" : 0,
            "byteLength" : 48,
            "byteOffset" : 17688
        },
        {
            "buffer" : 0,
            "byteLength" : 48,
            "byteOffset" : 17736
        },
        {
            "buffer" : 0,
            "byteLength" : 32,
            "byteOffset" : 17784
        },
        {
            "buffer" : 0,
            "byteLength" : 12,
            "byteOffset" : 17816
        },
        {
            "buffer" : 0,
            "byteLength" : 1824,
            "byteOffset" : 17828
        },
        {
            "buffer" : 0,
            "byteLength" : 1824,
            "byteOffset" : 19652
        },
        {
            "buffer" : 0,
            "byteLength" : 1216,
            "byteOffset" : 21476
        },
        {
            "buffer" : 0,
            "byteLength" : 456,
            "byteOffset" : 22692
        }
    ],
    "buffers" : [
        {
            "byteLength" : 23148,
            "uri" : "data:application/octet-stream;base64,"
        }
    ]
}
